<svg width="44" height="46" viewBox="0 0 44 46" fill="none" xmlns="http://www.w3.org/2000/svg">
<path d="M41.435 10.4367L23.56 0.656225C23.0824 0.39233 22.5457 0.253906 22 0.253906C21.4543 0.253906 20.9176 0.39233 20.44 0.656225L2.565 10.4408C2.05452 10.7201 1.6284 11.1313 1.33112 11.6315C1.03384 12.1318 0.876321 12.7026 0.875 13.2845V32.7114C0.876321 33.2933 1.03384 33.8641 1.33112 34.3644C1.6284 34.8646 2.05452 35.2758 2.565 35.5551L20.44 45.3397C20.9176 45.6036 21.4543 45.742 22 45.742C22.5457 45.742 23.0824 45.6036 23.56 45.3397L41.435 35.5551C41.9455 35.2758 42.3716 34.8646 42.6689 34.3644C42.9662 33.8641 43.1237 33.2933 43.125 32.7114V13.2865C43.1248 12.7036 42.9678 12.1315 42.6704 11.6301C42.3731 11.1287 41.9464 10.7165 41.435 10.4367ZM22 3.49998L38.3211 12.4375L32.272 15.7464L15.9509 6.80888L22 3.49998ZM22 21.375L5.67891 12.4375L12.5669 8.66544L28.888 17.6029L22 21.375ZM39.875 32.7195L23.625 41.6144V24.1842L30.125 20.6275V27.875C30.125 28.306 30.2962 28.7193 30.601 29.024C30.9057 29.3288 31.319 29.5 31.75 29.5C32.181 29.5 32.5943 29.3288 32.899 29.024C33.2038 28.7193 33.375 28.306 33.375 27.875V18.8481L39.875 15.2914V32.7114V32.7195Z" fill="#6B6B6B"/>
</svg>
