<svg width="14" height="19" viewBox="0 0 14 19" fill="none" xmlns="http://www.w3.org/2000/svg">
<path d="M10.125 3.17031V2.5C10.125 2.00272 9.92746 1.52581 9.57583 1.17417C9.22419 0.822544 8.74728 0.625 8.25 0.625H5.75C5.25272 0.625 4.77581 0.822544 4.42417 1.17417C4.07254 1.52581 3.875 2.00272 3.875 2.5V3.17031C2.83444 3.32198 1.88311 3.84278 1.19467 4.63765C0.50622 5.43251 0.126566 6.44844 0.125 7.5V16.875C0.125 17.2065 0.256696 17.5245 0.491116 17.7589C0.725537 17.9933 1.04348 18.125 1.375 18.125H12.625C12.9565 18.125 13.2745 17.9933 13.5089 17.7589C13.7433 17.5245 13.875 17.2065 13.875 16.875V7.5C13.8734 6.44844 13.4938 5.43251 12.8053 4.63765C12.1169 3.84278 11.1656 3.32198 10.125 3.17031ZM5.75 1.875H8.25C8.41576 1.875 8.57473 1.94085 8.69194 2.05806C8.80915 2.17527 8.875 2.33424 8.875 2.5V3.125H5.125V2.5C5.125 2.33424 5.19085 2.17527 5.30806 2.05806C5.42527 1.94085 5.58424 1.875 5.75 1.875ZM10.125 12.5H3.875V11.875C3.875 11.7092 3.94085 11.5503 4.05806 11.4331C4.17527 11.3158 4.33424 11.25 4.5 11.25H9.5C9.66576 11.25 9.82473 11.3158 9.94194 11.4331C10.0592 11.5503 10.125 11.7092 10.125 11.875V12.5ZM3.875 13.75H7.625V14.375C7.625 14.5408 7.69085 14.6997 7.80806 14.8169C7.92527 14.9342 8.08424 15 8.25 15C8.41576 15 8.57473 14.9342 8.69194 14.8169C8.80915 14.6997 8.875 14.5408 8.875 14.375V13.75H10.125V16.875H3.875V13.75ZM12.625 16.875H11.375V11.875C11.375 11.3777 11.1775 10.9008 10.8258 10.5492C10.4742 10.1975 9.99728 10 9.5 10H4.5C4.00272 10 3.52581 10.1975 3.17417 10.5492C2.82254 10.9008 2.625 11.3777 2.625 11.875V16.875H1.375V7.5C1.375 6.6712 1.70424 5.87634 2.29029 5.29029C2.87634 4.70424 3.6712 4.375 4.5 4.375H9.5C10.3288 4.375 11.1237 4.70424 11.7097 5.29029C12.2958 5.87634 12.625 6.6712 12.625 7.5V16.875ZM8.875 6.875C8.875 7.04076 8.80915 7.19973 8.69194 7.31694C8.57473 7.43415 8.41576 7.5 8.25 7.5H5.75C5.58424 7.5 5.42527 7.43415 5.30806 7.31694C5.19085 7.19973 5.125 7.04076 5.125 6.875C5.125 6.70924 5.19085 6.55027 5.30806 6.43306C5.42527 6.31585 5.58424 6.25 5.75 6.25H8.25C8.41576 6.25 8.57473 6.31585 8.69194 6.43306C8.80915 6.55027 8.875 6.70924 8.875 6.875Z" fill="white"/>
</svg>
