<svg width="42" height="42" viewBox="0 0 42 42" fill="none" xmlns="http://www.w3.org/2000/svg">
<path d="M39.5 20.3751V38.2501C39.5 39.112 39.1576 39.9387 38.5481 40.5482C37.9386 41.1576 37.112 41.5001 36.25 41.5001H3.75C2.88805 41.5001 2.0614 41.1576 1.4519 40.5482C0.84241 39.9387 0.5 39.112 0.5 38.2501V5.75006C0.5 4.8881 0.84241 4.06145 1.4519 3.45196C2.0614 2.84247 2.88805 2.50006 3.75 2.50006H21.625C22.056 2.50006 22.4693 2.67126 22.774 2.97601C23.0788 3.28076 23.25 3.69408 23.25 4.12506C23.25 4.55603 23.0788 4.96936 22.774 5.27411C22.4693 5.57885 22.056 5.75006 21.625 5.75006H3.75V38.2501H36.25V20.3751C36.25 19.9441 36.4212 19.5308 36.726 19.226C37.0307 18.9213 37.444 18.7501 37.875 18.7501C38.306 18.7501 38.7193 18.9213 39.024 19.226C39.3288 19.5308 39.5 19.9441 39.5 20.3751ZM40.6497 10.1497L21.1497 29.6497C20.9987 29.8006 20.8194 29.9202 20.6221 30.0018C20.4249 30.0833 20.2135 30.1252 20 30.1251H13.5C13.069 30.1251 12.6557 29.9539 12.351 29.6491C12.0462 29.3444 11.875 28.931 11.875 28.5001V22.0001C11.8748 21.7866 11.9167 21.5752 11.9983 21.3779C12.0798 21.1807 12.1995 21.0014 12.3503 20.8504L31.8503 1.35037C32.0012 1.19928 32.1805 1.07942 32.3777 0.997648C32.575 0.915871 32.7864 0.873779 33 0.873779C33.2136 0.873779 33.425 0.915871 33.6223 0.997648C33.8195 1.07942 33.9988 1.19928 34.1497 1.35037L40.6497 7.85037C40.8008 8.00129 40.9206 8.18051 41.0024 8.37778C41.0842 8.57505 41.1263 8.78651 41.1263 9.00006C41.1263 9.21361 41.0842 9.42506 41.0024 9.62234C40.9206 9.81961 40.8008 9.99883 40.6497 10.1497ZM37.1966 9.00006L33 4.7974L30.4223 7.37506L34.625 11.5777L37.1966 9.00006Z" fill="#6B6B6B"/>
</svg>
