<svg width="46" height="36" viewBox="0 0 46 36" fill="none" xmlns="http://www.w3.org/2000/svg">
<path d="M45.1848 22.8547V22.8344C45.1813 22.8192 45.1766 22.8042 45.1706 22.7898C45.0358 22.4219 44.8791 22.0624 44.7014 21.7132L36.2575 2.52194C36.1762 2.33709 36.0612 2.16901 35.9183 2.02631C35.3147 1.42258 34.5981 0.943656 33.8094 0.616908C33.0206 0.290159 32.1753 0.121983 31.3216 0.121983C30.4678 0.121983 29.6225 0.290159 28.8338 0.616908C28.0451 0.943656 27.3284 1.42258 26.7248 2.02631C26.4212 2.33033 26.2503 2.74224 26.2495 3.17194V8.25006H19.7495V3.17194C19.7497 2.95848 19.7078 2.74707 19.6263 2.54981C19.5447 2.35254 19.4251 2.17327 19.2742 2.02225C18.6706 1.41851 17.954 0.939593 17.1653 0.612845C16.3766 0.286097 15.5312 0.11792 14.6775 0.11792C13.8238 0.11792 12.9784 0.286097 12.1897 0.612845C11.401 0.939593 10.6844 1.41851 10.0808 2.02225C9.9379 2.16495 9.82286 2.33303 9.74157 2.51788L1.30579 21.7132C1.1281 22.0624 0.971411 22.4219 0.83657 22.7898C0.830919 22.8036 0.82617 22.8179 0.822351 22.8324C0.822351 22.8324 0.822351 22.8487 0.822351 22.8547C-0.0165771 25.2787 0.133515 27.9357 1.2401 30.2498C2.34668 32.5639 4.32061 34.3487 6.73409 35.2174C9.14757 36.0861 11.8062 35.9688 14.1337 34.8908C16.4613 33.8127 18.2702 31.8609 19.1686 29.4583C19.5642 28.3791 19.7636 27.2379 19.7577 26.0885V11.5001H26.2577V26.0905C26.2517 27.2399 26.4512 28.3812 26.8467 29.4604C27.7451 31.863 29.5541 33.8148 31.8816 34.8928C34.2092 35.9708 36.8678 36.0881 39.2812 35.2194C41.6947 34.3507 43.6686 32.5659 44.7752 30.2518C45.8818 27.9377 46.0319 25.2808 45.193 22.8568L45.1848 22.8547ZM16.1075 28.3391C15.5074 29.9403 14.3006 31.2405 12.7486 31.958C11.1966 32.6755 9.42431 32.7526 7.81583 32.1726C6.20735 31.5925 4.89221 30.402 4.15539 28.859C3.41857 27.316 3.3194 25.5449 3.87938 23.9293L4.24704 23.0904C4.92278 21.8059 6.00898 20.7845 7.33256 20.189C8.65614 19.5935 10.141 19.4581 11.5504 19.8044C12.9599 20.1507 14.2129 20.9587 15.1098 22.0998C16.0067 23.2409 16.496 24.6493 16.4995 26.1007V26.1251C16.4994 26.883 16.3667 27.635 16.1075 28.3473V28.3391ZM38.2339 32.233C37.2514 32.5927 36.1965 32.7099 35.159 32.5746C34.1215 32.4393 33.132 32.0555 32.2745 31.4559C31.4171 30.8563 30.7171 30.0585 30.2339 29.1304C29.7508 28.2024 29.4989 27.1714 29.4995 26.1251V26.1027C29.5049 24.652 29.9954 23.2448 30.893 22.1052C31.7905 20.9655 33.0436 20.1588 34.4526 19.8135C35.8616 19.4683 37.3456 19.6043 38.6684 20.2C39.9911 20.7956 41.0766 21.8167 41.752 23.1005L42.1197 23.9394C42.6977 25.5548 42.6135 27.3332 41.8856 28.8869C41.1577 30.4405 39.8451 31.6433 38.2339 32.233Z" fill="#6B6B6B"/>
</svg>
