<svg width="201" height="40" viewBox="0 0 201 40" fill="none" xmlns="http://www.w3.org/2000/svg">
<path d="M161 19.378V0.621105C161 0.453428 161.066 0.302317 161.174 0.190533L171.246 10.2366C171.095 10.3877 171 10.5968 171 10.8265V19.378C171 19.7216 170.721 19.999 170.381 19.999H161.62C161.277 19.999 161 19.7216 161 19.378Z" fill="#FFD719"/>
<path d="M161.173 0.190279C161.285 0.0722857 161.444 -0.000169754 161.619 -0.000169754H180.378C180.719 -0.000169754 180.998 0.27722 180.998 0.620851V9.37725C180.998 9.72088 180.719 9.99827 180.378 9.99827H171.826C171.599 9.99827 171.394 10.0894 171.246 10.2363L161.173 0.190279Z" fill="#0F5EBB"/>
<path d="M201 0.828028V39.1719C201 39.6294 200.63 40 200.174 40H161.827C161.371 40 161.001 39.6294 161.001 39.1719V30.8275C161.001 30.37 161.371 29.9995 161.827 29.9995H190.316C190.772 29.9995 191.142 29.6289 191.142 29.1714V0.828028C191.142 0.370542 191.512 0 191.968 0H200.174C200.63 0 201 0.370542 201 0.828028Z" fill="white"/>
<path d="M99.9978 20.8271V39.172C99.9978 39.6295 99.628 40 99.1715 40H90.7536C90.2971 40 89.9273 39.6295 89.9273 39.172V30.8276C89.9273 30.3701 89.5576 29.9995 89.1011 29.9995H78.5038C77.7684 29.9995 77.3987 29.1073 77.9192 28.5857L82.9162 23.5782L86.2483 20.2412C86.4032 20.086 86.6139 19.999 86.8329 19.999H99.1715C99.628 19.999 99.9978 20.3696 99.9978 20.8271Z" fill="white"/>
<path d="M153.264 40H141.555C141.336 40 141.125 39.913 140.97 39.7557L120.313 18.9598C119.997 18.641 119.991 18.1255 120.303 17.8026L122.182 15.8422L137.752 0.242198C137.907 0.0869426 138.118 0 138.337 0H149.977C150.712 0 151.082 0.8922 150.562 1.41386L134.244 17.7674C133.922 18.0903 133.922 18.6141 134.244 18.9391L153.85 38.5861C154.371 39.1078 154.003 40 153.266 40H153.264Z" fill="white"/>
<path d="M116.731 0H108.383C107.927 0 107.557 0.370721 107.557 0.828028V39.1719C107.557 39.6292 107.927 40 108.383 40H116.731C117.187 40 117.557 39.6292 117.557 39.1719V0.828028C117.557 0.370721 117.187 0 116.731 0Z" fill="white"/>
<path d="M99.9986 0.621021V9.37741C99.9986 9.72105 99.7217 9.99843 99.3788 9.99843H82.9976C82.8323 9.99843 82.6753 10.0647 82.5596 10.1806L78.4839 14.2648L76.9078 15.8422L76.4182 16.3329L72.7598 19.9989L64.3006 28.4759L62.7802 29.9995L52.9824 39.8178C52.8667 39.9337 52.7077 40 52.5445 40H40.6562C39.9208 40 39.551 39.1078 40.0716 38.5861L48.6402 29.9995L54.3541 24.2736L58.6198 19.9989L68.5994 9.99843L76.4182 2.16322L76.4884 2.09284L78.3951 0.182164C78.5108 0.0662401 78.6698 0 78.833 0H99.3788C99.7217 0 99.9986 0.277389 99.9986 0.621021Z" fill="white"/>
<path d="M62.3088 0C63.0442 0 63.4139 0.890128 62.8934 1.41179L54.5354 9.81627C54.4197 9.93219 54.2607 9.99843 54.0975 9.99843H31.048C30.5915 9.99843 30.2217 10.369 30.2217 10.8265V39.1719C30.2217 39.6294 29.8519 40 29.3954 40H20.7297C20.2731 40 19.9034 39.6294 19.9034 39.1719V10.8265C19.9034 10.369 19.5336 9.99843 19.0771 9.99843H0.826294C0.369767 9.99843 0 9.62789 0 9.17041V0.828028C0 0.370542 0.369767 0 0.826294 0H62.3088Z" fill="white"/>
</svg>
