<svg width="46" height="40" viewBox="0 0 46 40" fill="none" xmlns="http://www.w3.org/2000/svg">
<g clip-path="url(#clip0_324_51826)">
<path d="M27.2617 30.7135V22.2668C27.2617 22.191 27.2918 22.1234 27.3402 22.0732L31.8854 26.5974C31.8178 26.665 31.7749 26.7599 31.7749 26.8631V30.7135C31.7749 30.8678 31.649 30.9929 31.4956 30.9929H27.542C27.3868 30.9929 27.2626 30.8678 27.2626 30.7135H27.2617Z" fill="#FFD719"/>
<path d="M27.3398 22.0721C27.3901 22.0192 27.4622 21.9863 27.5416 21.9863H36.0066C36.16 21.9863 36.2859 22.1114 36.2859 22.2657V26.2092C36.2859 26.3644 36.16 26.4886 36.0066 26.4886H32.147C32.0448 26.4886 31.9526 26.5297 31.885 26.5963L27.3398 22.0721Z" fill="#0F5EBB"/>
<path d="M45.3127 22.3598V39.6266C45.3127 39.8329 45.1457 39.9991 44.9394 39.9991H27.6351C27.4288 39.9991 27.2617 39.832 27.2617 39.6266V35.8693C27.2617 35.663 27.4288 35.4968 27.6351 35.4968H40.491C40.6973 35.4968 40.8634 35.3298 40.8634 35.1244V22.3598C40.8634 22.1534 41.0305 21.9873 41.2359 21.9873H44.9385C45.1448 21.9873 45.3118 22.1544 45.3118 22.3598H45.3127Z" fill="#1C2F43"/>
<path d="M20.6305 39.999H15.3468C15.2482 39.999 15.1533 39.9597 15.083 39.8894L5.76076 30.5243C5.61836 30.381 5.61562 30.1482 5.7562 30.0031L6.60425 29.1203L13.6306 22.0949C13.7009 22.0246 13.7958 21.9854 13.8944 21.9854H19.147C19.4784 21.9854 19.6455 22.387 19.4109 22.6225L12.0477 29.9866C11.9025 30.1318 11.9025 30.3682 12.0477 30.5143L20.8952 39.3618C21.1298 39.5964 20.9646 39.998 20.6314 39.998H20.6305V39.999Z" fill="#1C2F43"/>
<path d="M4.14376 21.9863H0.376356C0.170048 21.9863 0.00390625 22.1534 0.00390625 22.3588V39.6257C0.00390625 39.832 0.170961 39.9981 0.376356 39.9981H4.14376C4.35007 39.9981 4.51712 39.831 4.51712 39.6257V22.3588C4.51712 22.1525 4.35007 21.9863 4.14376 21.9863Z" fill="#1C2F43"/>
<path d="M45.3111 9.37886V17.6403C45.3111 17.8466 45.1441 18.0128 44.9378 18.0128H41.1393C40.933 18.0128 40.7669 17.8457 40.7669 17.6403V13.8829C40.7669 13.6766 40.5998 13.5105 40.3944 13.5105H35.6119C35.2796 13.5105 35.1135 13.1088 35.3481 12.8742L37.6029 10.6194L39.1064 9.11687C39.1767 9.04658 39.2716 9.00732 39.3702 9.00732H44.9378C45.1441 9.00732 45.3111 9.17438 45.3111 9.38069V9.37886Z" fill="#1C2F43"/>
<path d="M45.3137 0.279274V4.22286C45.3137 4.37805 45.1886 4.5022 45.0343 4.5022H37.6419C37.5671 4.5022 37.4968 4.53232 37.4438 4.58435L35.6044 6.42378L34.8933 7.13399L34.6724 7.35491L33.0219 9.00628L29.2043 12.8239L28.5178 13.5104L24.0968 17.9314C24.0448 17.9834 23.9726 18.0135 23.8987 18.0135H18.5338C18.2015 18.0135 18.0354 17.6119 18.27 17.3764L22.1369 13.5095L24.7157 10.9306L26.641 9.00537L31.1441 4.5022L34.6724 0.973965L34.7043 0.942015L35.5651 0.0811815C35.6172 0.029148 35.6893 -0.000976562 35.7632 -0.000976562H45.0352C45.1904 -0.000976562 45.3146 0.124086 45.3146 0.278361L45.3137 0.279274Z" fill="#1C2F43"/>
<path d="M28.3044 0C28.6366 0 28.8028 0.400749 28.5682 0.635355L24.7962 4.4201C24.7442 4.47213 24.6721 4.50226 24.599 4.50226H14.1978C13.9915 4.50226 13.8254 4.66931 13.8254 4.87562V17.6402C13.8254 17.8465 13.6583 18.0127 13.452 18.0127H9.54129C9.33498 18.0127 9.16884 17.8456 9.16884 17.6402V4.87562C9.16884 4.66931 9.00178 4.50226 8.79639 4.50226H0.37245C0.166142 4.50226 0 4.33521 0 4.12981V0.37245C0 0.167055 0.167055 0 0.37245 0H28.3044Z" fill="#1C2F43"/>
</g>
<defs>
<clipPath id="clip0_324_51826">
<rect width="45.3129" height="40" fill="white"/>
</clipPath>
</defs>
</svg>
