<svg width="160" height="32" viewBox="0 0 160 32" fill="none" xmlns="http://www.w3.org/2000/svg">
<path d="M128.158 15.5023V0.496825C128.158 0.362685 128.211 0.241796 128.297 0.152369L136.314 8.1892C136.194 8.31009 136.119 8.47735 136.119 8.66117V15.5023C136.119 15.7772 135.897 15.9991 135.625 15.9991H128.652C128.379 15.9991 128.158 15.7772 128.158 15.5023Z" fill="#FFD719"/>
<path d="M128.297 0.152442C128.386 0.0580463 128.513 8.29697e-05 128.652 8.29697e-05H143.585C143.856 8.29697e-05 144.078 0.221994 144.078 0.496899V7.50201C144.078 7.77691 143.856 7.99882 143.585 7.99882H136.777C136.596 7.99882 136.433 8.07169 136.315 8.18927L128.297 0.152442Z" fill="#0F5EBB"/>
<path d="M160 0.662422V31.3375C160 31.7035 159.706 31.9999 159.342 31.9999H128.818C128.454 31.9999 128.16 31.7035 128.16 31.3375V24.662C128.16 24.296 128.454 23.9995 128.818 23.9995H151.495C151.859 23.9995 152.153 23.7031 152.153 23.3371V0.662422C152.153 0.296434 152.447 0 152.811 0H159.342C159.706 0 160 0.296434 160 0.662422Z" fill="#1C2F43"/>
<path d="M79.6008 16.6616V31.3376C79.6008 31.7036 79.3065 32 78.9431 32H72.2423C71.8789 32 71.5845 31.7036 71.5845 31.3376V24.662C71.5845 24.296 71.2902 23.9996 70.9268 23.9996H62.4912C61.9058 23.9996 61.6114 23.2858 62.0258 22.8685L66.0035 18.8625L68.6559 16.193C68.7792 16.0688 68.947 15.9992 69.1213 15.9992H78.9431C79.3065 15.9992 79.6008 16.2956 79.6008 16.6616Z" fill="#1C2F43"/>
<path d="M122.001 32H112.681C112.506 32 112.339 31.9304 112.215 31.8046L95.7717 15.1679C95.5201 14.9128 95.5152 14.5005 95.7635 14.2421L97.2598 12.6738L109.653 0.193819C109.777 0.069615 109.944 6.10352e-05 110.119 6.10352e-05H119.385C119.97 6.10352e-05 120.265 0.713821 119.85 1.13115L106.861 14.214C106.605 14.4723 106.605 14.8913 106.861 15.1513L122.468 30.8689C122.882 31.2862 122.59 32 122.003 32H122.001Z" fill="#1C2F43"/>
<path d="M92.9198 6.10352e-05H86.2749C85.9117 6.10352e-05 85.6172 0.296637 85.6172 0.662483V31.3376C85.6172 31.7034 85.9117 32 86.2749 32H92.9198C93.2831 32 93.5776 31.7034 93.5776 31.3376V0.662483C93.5776 0.296637 93.2831 6.10352e-05 92.9198 6.10352e-05Z" fill="#1C2F43"/>
<path d="M79.601 0.496877V7.50198C79.601 7.77689 79.3806 7.9988 79.1076 7.9988H66.0678C65.9363 7.9988 65.8113 8.05179 65.7192 8.14453L62.4749 11.4119L61.2202 12.6738L60.8305 13.0663L57.9183 15.9992L51.1847 22.7807L49.9744 23.9996L42.1752 31.8543C42.0831 31.947 41.9565 32 41.8266 32H32.3632C31.7779 32 31.4835 31.2862 31.8979 30.8689L38.7187 23.9996L43.267 19.4189L46.6627 15.9992L54.6066 7.9988L60.8305 1.73064L60.8864 1.67433L62.4042 0.145792C62.4963 0.053053 62.6229 6.10352e-05 62.7528 6.10352e-05H79.1076C79.3806 6.10352e-05 79.601 0.221972 79.601 0.496877Z" fill="#1C2F43"/>
<path d="M49.599 0C50.1844 0 50.4787 0.712102 50.0644 1.12943L43.4113 7.85301C43.3192 7.94575 43.1926 7.99874 43.0627 7.99874H24.7148C24.3514 7.99874 24.0571 8.29517 24.0571 8.66116V31.3375C24.0571 31.7035 23.7627 31.9999 23.3993 31.9999H16.5012C16.1378 31.9999 15.8435 31.7035 15.8435 31.3375V8.66116C15.8435 8.29517 15.5491 7.99874 15.1857 7.99874H0.657746C0.294342 7.99874 0 7.7023 0 7.33632V0.662422C0 0.296434 0.294342 0 0.657746 0H49.599Z" fill="#1C2F43"/>
</svg>
