<svg width="22" height="23" viewBox="0 0 22 23" fill="none" xmlns="http://www.w3.org/2000/svg">
<path d="M21.0615 16.8749L17.664 13.4765L14.2459 2.19931C14.1487 1.87819 13.9739 1.58599 13.7368 1.34859C13.4998 1.11119 13.2079 0.935908 12.8869 0.838283C12.5659 0.740658 12.2258 0.723698 11.8967 0.788906C11.5677 0.854114 11.2597 0.999477 11.0002 1.21212C10.7408 0.999477 10.4328 0.854114 10.1037 0.788906C9.77465 0.723698 9.43456 0.740658 9.11359 0.838283C8.79262 0.935908 8.50069 1.11119 8.26364 1.34859C8.0266 1.58599 7.85176 1.87819 7.75462 2.19931L4.33649 13.4774L0.938992 16.8749C0.6579 17.1562 0.5 17.5376 0.5 17.9352C0.5 18.3329 0.6579 18.7143 0.938992 18.9956L4.00368 22.0602C4.14297 22.1996 4.30835 22.3101 4.49036 22.3855C4.67237 22.4609 4.86745 22.4997 5.06446 22.4997C5.26147 22.4997 5.45655 22.4609 5.63857 22.3855C5.82058 22.3101 5.98595 22.1996 6.12524 22.0602L10.6515 17.5312C10.777 17.4054 10.8935 17.271 11.0002 17.129C11.107 17.271 11.2235 17.4054 11.349 17.5312L15.8752 22.0612C16.0145 22.2005 16.1799 22.311 16.3619 22.3864C16.5439 22.4618 16.739 22.5006 16.936 22.5006C17.133 22.5006 17.3281 22.4618 17.5101 22.3864C17.6921 22.311 17.8575 22.2005 17.9968 22.0612L21.0615 18.9965C21.2008 18.8572 21.3113 18.6918 21.3867 18.5098C21.4621 18.3278 21.501 18.1327 21.501 17.9357C21.501 17.7387 21.4621 17.5436 21.3867 17.3616C21.3113 17.1796 21.2008 17.0142 21.0615 16.8749ZM10.2502 14.8827C10.2517 15.1786 10.1945 15.4718 10.0819 15.7454C9.96921 16.019 9.80338 16.2675 9.59399 16.4765L7.31399 18.7499L4.25024 15.6862L5.52993 14.4056C5.61726 14.3182 5.68167 14.2107 5.71743 14.0924L9.18618 2.63431C9.22136 2.50681 9.30196 2.39658 9.4128 2.32439C9.52363 2.2522 9.65703 2.22305 9.78787 2.24241C9.91871 2.26178 10.038 2.32833 10.1231 2.42953C10.2083 2.53073 10.2535 2.65958 10.2502 2.79181V14.8827ZM14.6977 18.7621L12.4065 16.4737C12.1971 16.2647 12.0313 16.0162 11.9186 15.7426C11.806 15.469 11.7487 15.1758 11.7502 14.8799V2.78618C11.7503 2.65629 11.797 2.53073 11.8818 2.43237C11.9667 2.33402 12.084 2.26941 12.2125 2.25033C12.341 2.23124 12.472 2.25895 12.5818 2.32839C12.6916 2.39784 12.7728 2.50441 12.8106 2.62868L16.2793 14.0868C16.3151 14.205 16.3795 14.3126 16.4668 14.3999L17.8252 15.7584L14.6977 18.7621Z" fill="#6B6B6B"/>
</svg>
