<svg width="18" height="18" viewBox="0 0 18 18" fill="none" xmlns="http://www.w3.org/2000/svg">
<path d="M16.5 4.625C15.5058 4.62397 14.5525 4.22855 13.8495 3.52551C13.1465 2.82247 12.751 1.86924 12.75 0.875C12.75 0.70924 12.6842 0.550268 12.5669 0.433058C12.4497 0.315848 12.2908 0.25 12.125 0.25H9C8.83424 0.25 8.67527 0.315848 8.55806 0.433058C8.44085 0.550268 8.375 0.70924 8.375 0.875V11.1875C8.37487 11.4671 8.29972 11.7415 8.15739 11.9822C8.01506 12.2229 7.81076 12.4209 7.5658 12.5557C7.32084 12.6905 7.0442 12.7571 6.76474 12.7486C6.48527 12.74 6.21322 12.6566 5.97695 12.5071C5.74069 12.3576 5.54888 12.1474 5.42152 11.8985C5.29416 11.6496 5.23592 11.3711 5.25288 11.092C5.26983 10.8129 5.36137 10.5435 5.51793 10.3119C5.67449 10.0802 5.89034 9.89481 6.14297 9.775C6.24983 9.72428 6.34011 9.64429 6.40331 9.5443C6.46651 9.44431 6.50004 9.32844 6.5 9.21016V5.875C6.50004 5.78364 6.48005 5.69338 6.44144 5.61058C6.40283 5.52778 6.34653 5.45446 6.27652 5.39576C6.2065 5.33707 6.12447 5.29444 6.03621 5.27088C5.94794 5.24731 5.85558 5.24339 5.76562 5.25938C2.97734 5.75625 0.875 8.30469 0.875 11.1875C0.875 12.7622 1.50056 14.2724 2.61405 15.3859C3.72755 16.4994 5.23778 17.125 6.8125 17.125C8.38722 17.125 9.89745 16.4994 11.0109 15.3859C12.1244 14.2724 12.75 12.7622 12.75 11.1875V8.08516C13.9075 8.6891 15.1944 9.00303 16.5 9C16.6658 9 16.8247 8.93415 16.9419 8.81694C17.0592 8.69973 17.125 8.54076 17.125 8.375V5.25C17.125 5.08424 17.0592 4.92527 16.9419 4.80806C16.8247 4.69085 16.6658 4.625 16.5 4.625ZM15.875 7.72188C14.6536 7.61365 13.4841 7.17774 12.4898 6.46016C12.3964 6.39297 12.2862 6.35289 12.1714 6.34434C12.0566 6.33579 11.9417 6.3591 11.8394 6.4117C11.737 6.4643 11.6511 6.54415 11.5912 6.64244C11.5314 6.74074 11.4998 6.85365 11.5 6.96875V11.1875C11.5 12.4307 11.0061 13.623 10.1271 14.5021C9.24799 15.3811 8.0557 15.875 6.8125 15.875C5.5693 15.875 4.37701 15.3811 3.49794 14.5021C2.61886 13.623 2.125 12.4307 2.125 11.1875C2.125 9.16406 3.425 7.34922 5.25 6.6875V8.84922C4.84598 9.11917 4.51878 9.48919 4.30031 9.92321C4.08184 10.3572 3.97954 10.8405 4.00339 11.3258C4.02724 11.8111 4.17641 12.282 4.43638 12.6925C4.69635 13.103 5.05825 13.4392 5.48679 13.6682C5.91533 13.8972 6.3959 14.0114 6.88166 13.9994C7.36742 13.9875 7.8418 13.8499 8.25857 13.6C8.67533 13.3502 9.02026 12.9966 9.25973 12.5738C9.4992 12.151 9.62504 11.6734 9.625 11.1875V1.5H11.5391C11.6796 2.60085 12.1816 3.62389 12.9664 4.40862C13.7511 5.19335 14.7742 5.69538 15.875 5.83594V7.72188Z" fill="white"/>
</svg>
