<svg width="50" height="35" viewBox="0 0 50 35" fill="none" xmlns="http://www.w3.org/2000/svg">
<path d="M49.2592 12.7656L46.4155 5.65625C46.1741 5.05442 45.7575 4.53898 45.2196 4.17679C44.6818 3.8146 44.0475 3.62236 43.3991 3.625H36.375V2C36.375 1.56902 36.2038 1.1557 35.899 0.850952C35.5943 0.546205 35.181 0.375 34.75 0.375H3.875C3.01305 0.375 2.1864 0.71741 1.5769 1.3269C0.96741 1.9364 0.625 2.76305 0.625 3.625V26.375C0.625 27.237 0.96741 28.0636 1.5769 28.6731C2.1864 29.2826 3.01305 29.625 3.875 29.625H7.32812C7.68611 31.0232 8.49926 32.2624 9.63938 33.1474C10.7795 34.0324 12.1817 34.5127 13.625 34.5127C15.0683 34.5127 16.4705 34.0324 17.6106 33.1474C18.7507 32.2624 19.5639 31.0232 19.9219 29.625H30.0781C30.4361 31.0232 31.2493 32.2624 32.3894 33.1474C33.5295 34.0324 34.9317 34.5127 36.375 34.5127C37.8183 34.5127 39.2205 34.0324 40.3606 33.1474C41.5007 32.2624 42.3139 31.0232 42.6719 29.625H46.125C46.987 29.625 47.8136 29.2826 48.4231 28.6731C49.0326 28.0636 49.375 27.237 49.375 26.375V13.375C49.3752 13.1664 49.336 12.9596 49.2592 12.7656ZM13.625 31.25C12.9822 31.25 12.3539 31.0594 11.8194 30.7023C11.2849 30.3452 10.8684 29.8376 10.6224 29.2437C10.3764 28.6499 10.312 27.9964 10.4374 27.366C10.5628 26.7355 10.8724 26.1564 11.3269 25.7019C11.7814 25.2474 12.3605 24.9378 12.991 24.8124C13.6214 24.687 14.2749 24.7514 14.8687 24.9974C15.4626 25.2434 15.9702 25.6599 16.3273 26.1944C16.6844 26.7289 16.875 27.3572 16.875 28C16.875 28.862 16.5326 29.6886 15.9231 30.2981C15.3136 30.9076 14.487 31.25 13.625 31.25ZM3.875 16.625V3.625H33.125V16.625H3.875ZM36.375 31.25C35.7322 31.25 35.1039 31.0594 34.5694 30.7023C34.0349 30.3452 33.6184 29.8376 33.3724 29.2437C33.1264 28.6499 33.062 27.9964 33.1874 27.366C33.3129 26.7355 33.6224 26.1564 34.0769 25.7019C34.5314 25.2474 35.1105 24.9378 35.741 24.8124C36.3714 24.687 37.0249 24.7514 37.6187 24.9974C38.2126 25.2434 38.7202 25.6599 39.0773 26.1944C39.4344 26.7289 39.625 27.3572 39.625 28C39.625 28.862 39.2826 29.6886 38.6731 30.2981C38.0636 30.9076 37.237 31.25 36.375 31.25ZM36.375 11.75V6.875H43.3991L45.3491 11.75H36.375Z" fill="#6B6B6B"/>
</svg>
